<?xml version="1.0" encoding="UTF-8"?>
<svg version="1.1" xmlns="http://www.w3.org/2000/svg" width="281" height="239">
<path d="M0 0 C2.09094755 0.01079579 4.18104981 0.00000952 6.27197266 -0.01269531 C7.61963078 -0.01137475 8.96728838 -0.00881448 10.31494141 -0.00488281 C12.12043457 -0.00149902 12.12043457 -0.00149902 13.96240234 0.00195312 C17.42069945 0.26766746 20.13999627 0.91303206 23.33056641 2.26074219 C23.82556641 3.25074219 23.82556641 3.25074219 24.33056641 4.26074219 C24.99056641 4.03386719 25.65056641 3.80699219 26.33056641 3.57324219 C33.66338921 2.80940648 41.81787653 8.23186252 48.33056641 11.26074219 C48.33056641 11.92074219 48.33056641 12.58074219 48.33056641 13.26074219 C49.66861328 13.63199219 49.66861328 13.63199219 51.03369141 14.01074219 C54.52054044 15.33277026 56.38097634 16.72421461 59.08056641 19.26074219 C59.93521484 20.06253906 60.78986328 20.86433594 61.67041016 21.69042969 C62.54826172 22.53863281 63.42611328 23.38683594 64.33056641 24.26074219 C65.21873047 25.10894531 66.10689453 25.95714844 67.02197266 26.83105469 C82.07501869 41.50272697 92.11996852 61.50893617 92.63134766 82.74511719 C92.64884823 84.80296199 92.65274041 86.86006025 92.64624023 88.91796875 C92.64309224 90.9937053 92.66657682 93.06799437 92.69189453 95.14355469 C92.75047429 107.53800182 91.03254553 119.11695029 85.33056641 130.26074219 C85.02248047 130.92332031 84.71439453 131.58589844 84.39697266 132.26855469 C79.41985179 142.80105113 72.26759193 150.89724963 64.33056641 159.26074219 C63.71439453 159.96457031 63.09822266 160.66839844 62.46337891 161.39355469 C60.95556641 163.07324219 60.95556641 163.07324219 58.33056641 165.26074219 C56.68056641 164.93074219 55.03056641 164.60074219 53.33056641 164.26074219 C53.00056641 142.15074219 52.67056641 120.04074219 52.33056641 97.26074219 C47.05056641 94.62074219 41.77056641 91.98074219 36.33056641 89.26074219 C30.14306641 85.88574219 30.14306641 85.88574219 27.33056641 84.26074219 C27.32176704 86.03933121 27.32176704 86.03933121 27.31278992 87.85385132 C27.25566805 99.00820118 27.18296214 110.16235411 27.09485149 121.31650352 C27.05005368 127.05148296 27.01081851 132.7863898 26.98413086 138.52148438 C26.95819155 144.05237172 26.91785627 149.58298109 26.86738014 155.11369705 C26.85064777 157.22765277 26.83917335 159.34165662 26.8329525 161.4556694 C26.82338042 164.40840809 26.79540477 167.36042531 26.76293945 170.31298828 C26.76509209 171.63468269 26.76509209 171.63468269 26.76728821 172.983078 C26.72929382 175.41366577 26.72929382 175.41366577 26.33056641 179.26074219 C23.41550185 181.20411856 22.50084948 181.53748886 19.20556641 181.82324219 C15.55592675 181.82761118 15.55592675 181.82761118 14.33056641 183.26074219 C12.41598359 183.36046004 10.49774323 183.39154807 8.58056641 183.39355469 C7.41525391 183.39484375 6.24994141 183.39613281 5.04931641 183.39746094 C3.82212891 183.39359375 2.59494141 183.38972656 1.33056641 183.38574219 C0.10337891 183.38960937 -1.12380859 183.39347656 -2.38818359 183.39746094 C-4.13615234 183.39552734 -4.13615234 183.39552734 -5.91943359 183.39355469 C-6.99708984 183.39242676 -8.07474609 183.39129883 -9.18505859 183.39013672 C-11.66943359 183.26074219 -11.66943359 183.26074219 -12.66943359 182.26074219 C-14.32863255 181.89203131 -15.9971763 181.56478897 -17.66943359 181.26074219 C-22.55832248 180.3718533 -22.55832248 180.3718533 -23.66943359 179.26074219 C-23.83974585 177.5001758 -23.94221221 175.73299892 -24.01757812 173.96582031 C-24.06657257 172.83374146 -24.11556702 171.7016626 -24.16604614 170.53527832 C-24.33069724 166.01004788 -24.48285233 161.48462098 -24.60902596 156.95813751 C-24.70486405 153.52544513 -24.81827102 150.09548985 -24.97607422 146.66503906 C-25.15772004 142.70842024 -25.26341671 138.75151683 -25.36474609 134.79199219 C-25.42993439 133.57290161 -25.49512268 132.35381104 -25.56228638 131.09777832 C-25.63682242 126.16095789 -25.66465053 122.67601428 -22.76654053 118.5546875 C-20.50448869 116.26746365 -18.19112024 114.25445039 -15.66943359 112.26074219 C-14.2477013 110.99557852 -12.83015667 109.72567016 -11.41943359 108.44824219 C-10.1734844 107.38099487 -8.92388285 106.31798545 -7.66943359 105.26074219 C-6.72068359 104.45636719 -5.77193359 103.65199219 -4.79443359 102.82324219 C-2.66943359 101.26074219 -2.66943359 101.26074219 -0.66943359 101.26074219 C-0.66943359 100.60074219 -0.66943359 99.94074219 -0.66943359 99.26074219 C1.09619141 97.70214844 1.09619141 97.70214844 3.58056641 95.82324219 C8.42112321 92.07905081 12.86859408 88.0624584 17.21826172 83.7668457 C20.2528626 80.87292507 20.93740692 80.26074219 25.33056641 80.26074219 C25.00056641 66.73074219 24.67056641 53.20074219 24.33056641 39.26074219 C23.34056641 41.57074219 22.35056641 43.88074219 21.33056641 46.26074219 C19.35791016 48.47558594 19.35791016 48.47558594 17.26806641 50.19824219 C16.57583984 50.78476563 15.88361328 51.37128906 15.17041016 51.97558594 C13.33056641 53.26074219 13.33056641 53.26074219 11.33056641 53.26074219 C11.33056641 53.92074219 11.33056641 54.58074219 11.33056641 55.26074219 C9.83764648 56.52905273 9.83764648 56.52905273 7.78759766 57.95996094 C3.54159781 61.0405753 -0.20564484 64.44233074 -3.98193359 68.07324219 C-21.08210108 84.26074219 -21.08210108 84.26074219 -24.66943359 84.26074219 C-24.66943359 84.92074219 -24.66943359 85.58074219 -24.66943359 86.26074219 C-25.32943359 86.26074219 -25.98943359 86.26074219 -26.66943359 86.26074219 C-26.66943359 86.92074219 -26.66943359 87.58074219 -26.66943359 88.26074219 C-28.39990234 89.78417969 -28.39990234 89.78417969 -30.85693359 91.63574219 C-32.16078003 92.69873535 -32.16078003 92.69873535 -33.4909668 93.78320312 C-35.63342721 95.51094797 -37.67542687 96.87511251 -40.05224609 98.32666016 C-45.08110212 101.68416333 -48.9376976 105.1210877 -50.35244751 111.19134521 C-51.31067635 119.78473062 -50.85184426 128.39273641 -50.48193359 137.01074219 C-50.41665019 139.6538291 -50.35734767 142.29707091 -50.30419922 144.94042969 C-50.16169047 151.38394024 -49.94484852 157.8216153 -49.66943359 164.26074219 C-51.31943359 164.59074219 -52.96943359 164.92074219 -54.66943359 165.26074219 C-54.99943359 164.27074219 -55.32943359 163.28074219 -55.66943359 162.26074219 C-56.55501953 162.04417969 -56.55501953 162.04417969 -57.45849609 161.82324219 C-64.32121142 160.07725101 -69.69712923 151.22120222 -73.27099609 145.49511719 C-74.19677879 144.01593366 -75.17118462 142.56600999 -76.19287109 141.15136719 C-80.64334937 134.96136186 -83.1171103 128.4072474 -85.66943359 121.26074219 C-86.23066374 119.90604874 -86.79295397 118.55179329 -87.35693359 117.19824219 C-95.32142992 95.25062446 -90.6175522 70.82664272 -81.18896484 50.29589844 C-70.03434207 27.25569855 -49.64018621 11.44123255 -25.77636719 2.92871094 C-17.26053376 0.22890558 -8.87734867 -0.05460399 0 0 Z " fill="#010101" transform="translate(136.66943359375,24.7392578125)"/>
<path d="M0 0 C1.32 0.33 2.64 0.66 4 1 C1.36 3.64 -1.28 6.28 -4 9 C-4.66 8.67 -5.32 8.34 -6 8 C-4.73046875 6.50260417 -3.4609375 5.00520833 -2.19140625 3.5078125 C-0.9121848 1.99405921 -0.9121848 1.99405921 0 0 Z " fill="#08080A" transform="translate(76,48)"/>
<path d="M0 0 C0 0.99 0 1.98 0 3 C-4.22222222 6 -4.22222222 6 -7 6 C-7 5.01 -7 4.02 -7 3 C-4.69 2.01 -2.38 1.02 0 0 Z " fill="#0A0A0A" transform="translate(93,37)"/>
<path d="M0 0 C0 0.66 0 1.32 0 2 C-2.64 2.66 -5.28 3.32 -8 4 C-8 3.01 -8 2.02 -8 1 C-2.25 0 -2.25 0 0 0 Z " fill="#0C0C0C" transform="translate(108,31)"/>
</svg>
